<svg id="Livello_1" data-name="Livello 1" xmlns="http://www.w3.org/2000/svg" viewBox="0 0 48.4 48.4"><defs><style>.cls-1{fill:transparent;}.cls-2{fill:#020102;}</style></defs><rect class="cls-1" width="48.4" height="48.4"/><path class="cls-2" d="M373.89,250.85v48.41H422.3V250.85Zm5.21,5.21h38v38h-38Zm38.28-1H378.81l-2.23-2.23h43Zm-39.27.7v38.57l-2.23,2.23v-43Zm.7,39.27h38.57l2.23,2.23h-43Zm39.27-.7V255.77l2.23-2.23v43Z" transform="translate(-373.89 -250.85)"/><path class="cls-2" d="M390.62,289.13a1,1,0,0,1-1-1V262a1,1,0,0,1,1.93,0v26.21A1,1,0,0,1,390.62,289.13Z" transform="translate(-373.89 -250.85)"/><path class="cls-2" d="M405.56,273.68h-7.17a1,1,0,0,1-1-1v-.3h-6.8a1,1,0,0,1,0-1.93h7.77a1,1,0,0,1,1,1v.3h5.25v-6.51h-6.21a1,1,0,0,1-1-1V264h-6.8a1,1,0,0,1,0-1.93h7.77a1,1,0,0,1,1,1v.3h6.21a1,1,0,0,1,1,1v8.44A1,1,0,0,1,405.56,273.68Z" transform="translate(-373.89 -250.85)"/></svg>
