<svg id="Livello_1" data-name="Livello 1" xmlns="http://www.w3.org/2000/svg" viewBox="0 0 48.4 48.4"><defs><style>.cls-1{fill:transparent;}.cls-2{fill:#020102;}</style></defs><rect class="cls-1" width="48.4" height="48.4"/><path class="cls-2" d="M677.71,359.18v48.4h48.41v-48.4Zm5.21,5.21h38v38h-38Zm38.28-1H682.63l-2.23-2.23h43Zm-39.27.7v38.57l-2.23,2.23v-43Zm.7,39.27H721.2l2.23,2.23h-43Zm39.27-.7V364.1l2.23-2.23v43Z" transform="translate(-677.71 -359.18)"/><path class="cls-2" d="M704.52,389.57l-.39-.37L690,376a2.24,2.24,0,0,1-.53-.79c-.6-1.44-1.17-2.89-1.74-4.34-.11-.26-.28-.53,0-.81s.54-.12.8,0c1.5.48,3,1,4.49,1.46a2.27,2.27,0,0,1,.79.47q7.07,6.58,14.11,13.19l.41.38c.38-.42.75-.83,1.13-1.21a1.27,1.27,0,0,0,.43-1,2.38,2.38,0,0,1,2.36-2.37,2.45,2.45,0,0,1,2.45,2.38,2.41,2.41,0,0,1-2.51,2.44.3.3,0,0,0-.34.22c-.36.73-.71,1.46-1.09,2.18a.34.34,0,0,0,.09.49q2.31,2.14,4.61,4.3a2.23,2.23,0,1,1-3,3.3c-1.54-1.42-3.06-2.85-4.58-4.29a.43.43,0,0,0-.63-.07c-.66.41-1.34.79-2,1.17a.36.36,0,0,0-.2.42,2.32,2.32,0,0,1-1.14,2.26,2.3,2.3,0,0,1-2.56,0,2.34,2.34,0,0,1-1-2.72,2.39,2.39,0,0,1,2.36-1.71.6.6,0,0,0,.36-.09C703.52,390.65,704,390.13,704.52,389.57Zm8.75-7.3a1.48,1.48,0,0,0-1.71-.21,1.41,1.41,0,0,0-.71,1.52.94.94,0,0,1-.29,1c-2.3,2.44-4.6,4.9-6.88,7.35a.91.91,0,0,1-.91.34A1.43,1.43,0,0,0,701.2,394a1.45,1.45,0,0,0,2.82-.65c-.13-.58-.09-.65.42-.95L708.6,390a1.1,1.1,0,0,0,.4-.43c.72-1.42,1.42-2.85,2.12-4.28.3-.59.32-.6,1-.51a1.44,1.44,0,0,0,1.49-.79A1.43,1.43,0,0,0,713.27,382.27Zm-23.82-9.93-.06,0c.32.82.64,1.64,1,2.45a1.51,1.51,0,0,0,.36.53q7.06,6.63,14.15,13.24a3.47,3.47,0,0,0,.29.25l.9-1Zm.71-.78,0,.06,16.61,15.54.92-1-.31-.29-14.12-13.21a1.13,1.13,0,0,0-.31-.24C692,372.14,691.08,371.85,690.16,371.56Zm18.24,19.61,2.42,2.26c.74.7,1.48,1.4,2.23,2.09a1.3,1.3,0,1,0,1.73-1.92l-4.41-4.14-.22-.17A2.51,2.51,0,0,1,708.4,391.17Z" transform="translate(-677.71 -359.18)"/></svg>