<svg id="Livello_1" data-name="Livello 1" xmlns="http://www.w3.org/2000/svg" viewBox="0 0 48.4 48.4"><defs><style>.cls-1{fill:transparent;}.cls-2{fill:#020102;}</style></defs><rect class="cls-1" width="48.4" height="48.4"/><path class="cls-2" d="M677.71,359.18v48.4h48.41v-48.4Zm5.21,5.21h38v38h-38Zm38.28-1H682.63l-2.23-2.23h43Zm-39.27.7v38.57l-2.23,2.23v-43Zm.7,39.27H721.2l2.23,2.23h-43Zm39.27-.7V364.1l2.23-2.23v43Z" transform="translate(-677.71 -359.18)"/><path class="cls-2" d="M686.17,383.45c.25.23.49.41.71.63l6.6,6.6c.06.06.13.12.18.18a.73.73,0,1,1-1,1l-2.11-2.1c-1.91-1.91-3.81-3.82-5.72-5.72-.5-.5-.5-.84,0-1.34l7.77-7.78c.22-.22.49-.41.78-.26a1.21,1.21,0,0,1,.51.56c.13.32-.1.58-.33.8L691,378.57l-4.57,4.58Z" transform="translate(-677.71 -359.18)"/><path class="cls-2" d="M717.62,383.41l-.32-.34-7-7.05a1.11,1.11,0,0,1-.3-.48.68.68,0,0,1,.39-.8.67.67,0,0,1,.86.18l2.88,2.88,4.94,4.94c.49.49.49.85,0,1.34l-7.7,7.68a2.09,2.09,0,0,1-.28.24.72.72,0,0,1-.91-.09.74.74,0,0,1,0-1,4.75,4.75,0,0,1,.38-.4l6.89-6.87A3.69,3.69,0,0,0,717.62,383.41Z" transform="translate(-677.71 -359.18)"/><path class="cls-2" d="M698.19,394.25a.77.77,0,0,1-.25,0,.74.74,0,0,1-.43-.93L705,373a.73.73,0,0,1,.93-.43.73.73,0,0,1,.43.93l-7.45,20.29A.72.72,0,0,1,698.19,394.25Z" transform="translate(-677.71 -359.18)"/></svg>