<svg id="Livello_1" data-name="Livello 1" xmlns="http://www.w3.org/2000/svg" viewBox="0 0 48.4 48.4"><defs><style>.cls-1{fill:transparent;}.cls-2{fill:#020102;}</style></defs><rect class="cls-1" width="48.4" height="48.4"/><path class="cls-2" d="M373.25,251.18v48.4h48.4v-48.4Zm5.2,5.21h38v38h-38Zm38.28-1H378.16l-2.23-2.23h43Zm-39.27.7v38.57l-2.23,2.23v-43Zm.7,39.27h38.57L419,297.6h-43Zm39.27-.7V256.1l2.23-2.23v43Z" transform="translate(-373.25 -251.18)"/><path class="cls-2" d="M392.16,261.83a3,3,0,0,1,5.4,0c.38-.14.75-.32,1.13-.43a3,3,0,0,1,3.41,1.72.49.49,0,0,0,.35.32,2.81,2.81,0,0,1,1.68,3.87l-.09.21c.64.54.26,1.29.41,2h1.11a3.84,3.84,0,0,1,3.81,2.67,4,4,0,0,1,.2,1.33c0,2.67,0,5.33,0,8a3.83,3.83,0,0,1-3,3.89,9,9,0,0,1-1.65.12h-.48v1.23a3.84,3.84,0,0,1-2.69,3.72,3.62,3.62,0,0,1-1.13.19q-5.69,0-11.38,0a3.88,3.88,0,0,1-3.91-4V268.35a1,1,0,0,1,.36-.84c-.09-.3-.21-.59-.27-.89a2.83,2.83,0,0,1,1.92-3.23.41.41,0,0,0,.31-.26,3,3,0,0,1,4.36-1.4Zm9.21,7.21v2.65a2.34,2.34,0,0,1-1.93,2.42,2.31,2.31,0,0,1-2.71-2.31c0-.85,0-1.7,0-2.54V269h-.34c-2.69,0-5.38,0-8.07,0a7.07,7.07,0,0,1-1.27-.23l-.17,0a1.7,1.7,0,0,0,0,.22c0,5.89,0,11.78,0,17.68a2.34,2.34,0,0,0,2.46,2.46h11.06a3,3,0,0,0,1.14-.25,2.37,2.37,0,0,0,1.37-2.35c0-5.83,0-11.65,0-17.48v-.24Zm-8.64-1.66h4.51c.71,0,1,.27,1,1,0,1.13,0,2.26,0,3.39a.77.77,0,0,0,1,.76.75.75,0,0,0,.53-.78v-3.46a.8.8,0,0,1,.88-.88h.74a1.31,1.31,0,0,0,1.34-1.19,1.27,1.27,0,0,0-1.09-1.36,1,1,0,0,1-.91-.85,1.32,1.32,0,0,0-1-1,1.45,1.45,0,0,0-1.85,1.17.73.73,0,0,1-.54.62,1,1,0,0,1-1-.21.84.84,0,0,1-.13-.91,1.3,1.3,0,0,0-.37-1.4,1.36,1.36,0,0,0-1.44-.34,1.44,1.44,0,0,0-.95,1.86.76.76,0,0,1-.42,1,1,1,0,0,1-1.15-.3,2.48,2.48,0,0,1-.17-.48,1.43,1.43,0,0,0-2.77,0c-.07.26-.11.54-.38.67a1.7,1.7,0,0,1-.63.14,1.29,1.29,0,0,0,.12,2.58Zm11.65,4.67h.67a1.82,1.82,0,0,1,1.92,1.89c0,2.35,0,4.69,0,7a1.82,1.82,0,0,1-1.9,1.88h-.64v1.07c.51,0,1,0,1.48,0a2.45,2.45,0,0,0,.8-.23,2.32,2.32,0,0,0,1.32-2.27c0-2.65,0-5.29,0-7.94a2.81,2.81,0,0,0-.08-.71,2.29,2.29,0,0,0-2.2-1.77h-1.33Zm.05,9.3H405c.35,0,.42-.07.42-.42v-7c0-.16,0-.31-.21-.33s-.53,0-.8,0Z" transform="translate(-373.25 -251.18)"/><path class="cls-2" d="M394.09,279v-6.07a.78.78,0,0,1,.7-.86.75.75,0,0,1,.81.56,1.58,1.58,0,0,1,0,.38q0,6,0,12c0,.5-.17.78-.57.89a.75.75,0,0,1-.95-.56,1.67,1.67,0,0,1,0-.38Z" transform="translate(-373.25 -251.18)"/><path class="cls-2" d="M391.56,279v6a.83.83,0,0,1-.31.72.72.72,0,0,1-.77.09.74.74,0,0,1-.46-.63,1.47,1.47,0,0,1,0-.21V272.92c0-.55.33-.91.79-.89a.78.78,0,0,1,.75.82V279Z" transform="translate(-373.25 -251.18)"/><path class="cls-2" d="M399.76,280.54v4.61a.74.74,0,0,1-.41.72.77.77,0,0,1-.8-.05.82.82,0,0,1-.34-.71c0-.91,0-1.81,0-2.72q0-3.19,0-6.4a.78.78,0,0,1,1-.82.76.76,0,0,1,.52.79Z" transform="translate(-373.25 -251.18)"/></svg>