<svg id="Livello_1" data-name="Livello 1" xmlns="http://www.w3.org/2000/svg" viewBox="0 0 48.4 48.4"><defs><style>.cls-1{fill:transparent;}.cls-2{fill:#020102;}</style></defs><rect class="cls-1" width="48.4" height="48.4"/><path class="cls-2" d="M677.71,359.18v48.4h48.41v-48.4Zm5.21,5.21h38v38h-38Zm38.28-1H682.63l-2.23-2.23h43Zm-39.27.7v38.57l-2.23,2.23v-43Zm.7,39.27H721.2l2.23,2.23h-43Zm39.27-.7V364.1l2.23-2.23v43Z" transform="translate(-677.71 -359.18)"/><path class="cls-2" d="M713.78,378c0-1.26,0-2.53,0-3.79a.87.87,0,0,0-.93-.95h-.66a15.2,15.2,0,0,1-3.09-.21,14.69,14.69,0,0,1-6.57-2.92.85.85,0,0,0-1.23,0,15.39,15.39,0,0,1-3,1.8,13.56,13.56,0,0,1-4.51,1.23c-.92.08-1.85.08-2.78.1a.88.88,0,0,0-1,1c0,2.23,0,4.46,0,6.69,0,.63,0,1.26.08,1.89a15.38,15.38,0,0,0,1.25,4.91,16.23,16.23,0,0,0,10.17,9.16,1.16,1.16,0,0,0,.69,0,16,16,0,0,0,4.72-2.34,16.27,16.27,0,0,0,5.22-6.24,15.62,15.62,0,0,0,1.56-6.15c0-1.28,0-2.57,0-3.86h0ZM709,390.29a14.3,14.3,0,0,1-6.91,4.88.45.45,0,0,1-.28,0,14.53,14.53,0,0,1-8.72-7.87,14.32,14.32,0,0,1-1.31-6.11c0-2,0-4,0-6a2.45,2.45,0,0,1,0-.25h.8a16.15,16.15,0,0,0,9.15-3,.3.3,0,0,1,.42,0,16.13,16.13,0,0,0,6.29,2.71,18.05,18.05,0,0,0,3.36.33H712l.09,0v6.13A14.6,14.6,0,0,1,709,390.29Z" transform="translate(-677.71 -359.18)"/><path class="cls-2" d="M708.74,377h-.42a9.64,9.64,0,0,1-1.93-.13,9.18,9.18,0,0,1-4.09-1.82.53.53,0,0,0-.77,0,9.63,9.63,0,0,1-1.84,1.12,8.46,8.46,0,0,1-2.82.77c-.57,0-1.15,0-1.73.06-.43,0-.63.21-.63.63v4.18c0,.39,0,.79,0,1.18a9.52,9.52,0,0,0,.78,3.06,10.14,10.14,0,0,0,6.35,5.71.7.7,0,0,0,.43,0,10.22,10.22,0,0,0,6.2-5.35,9.9,9.9,0,0,0,1-3.84c0-.8,0-1.6,0-2.41h0v-2.58A.55.55,0,0,0,708.74,377Zm-.48,1.24V382a9.08,9.08,0,0,1-2,5.74,9,9,0,0,1-4.31,3.05.25.25,0,0,1-.17,0,9.08,9.08,0,0,1-5.45-4.92,8.91,8.91,0,0,1-.81-3.81c0-1.25,0-2.5,0-3.76v-.15h.5a10.08,10.08,0,0,0,5.71-1.89.2.2,0,0,1,.26,0,10.15,10.15,0,0,0,3.93,1.7,12.23,12.23,0,0,0,2.09.2h.15l0,0Z" transform="translate(-677.71 -359.18)"/></svg>