<svg id="Livello_1" data-name="Livello 1" xmlns="http://www.w3.org/2000/svg" viewBox="0 0 48.4 48.4"><defs><style>.cls-1{fill:transparent;}.cls-2{fill:#020102;}</style></defs><rect class="cls-1" width="48.4" height="48.4"/><path class="cls-2" d="M659.3,359.8v48.4h48.4V359.8Zm5.21,5.21h38v38h-38Zm38.27-1H664.22L662,361.78h43Zm-39.26.71v38.56l-2.23,2.23v-43Zm.7,39.27h38.56l2.23,2.23H662Zm39.26-.71V364.72l2.23-2.23v43Z" transform="translate(-659.3 -359.8)"/><path class="cls-2" d="M679.3,388.93l-2.23,2.24c.32.3.66.58,1,.91a1.12,1.12,0,0,1,0,1.76c-1.43,1.44-2.86,2.88-4.31,4.31a2.9,2.9,0,0,1-4.4-.3,2.84,2.84,0,0,1-.38-3.38,2,2,0,0,1,.28-.37l1.67-1.76.82.79c-.48.48-1,.95-1.44,1.43a1.79,1.79,0,0,0-.62,1.23,2.28,2.28,0,0,0,1.33,2,1.79,1.79,0,0,0,2-.48l4.15-4.14c.07-.07.13-.15.18-.19l-2.72-2.77-1,1-.77-.8c.33-.34.66-.72,1-1.05a1.12,1.12,0,0,1,1.55.1l.8.79,2.18-2.18a11.36,11.36,0,0,1-2.82-9.07,11.07,11.07,0,0,1,4-7.39,11.39,11.39,0,0,1,14.41-.17l-.67.84a10.28,10.28,0,0,0-8.7-2,10,10,0,0,0-5.84,3.68,10.35,10.35,0,0,0,14.52,14.54,10.09,10.09,0,0,0,3.2-4.27,10.22,10.22,0,0,0,.64-5.33,10.53,10.53,0,0,0-2.1-4.93l.84-.65a11.37,11.37,0,0,1-.18,14.38,11,11,0,0,1-5,3.47,11.48,11.48,0,0,1-11.5-2.3Z" transform="translate(-659.3 -359.8)"/><path class="cls-2" d="M692.34,380.2v1.11h-2.05c-.13.32-.07.49.26.65a3.05,3.05,0,0,1,1.6,1.88c.19.6.29,1.25.44,1.91H691.5c-.14-.55-.25-1.09-.43-1.61a2,2,0,0,0-1-1.22,16,16,0,0,1-.82,1.54,2.57,2.57,0,0,1-2.48,1.31,2.7,2.7,0,0,1-2-1.31c-.3-.45-.52-1-.8-1.48a3.28,3.28,0,0,0-1.25,2.76h-1.07a4.1,4.1,0,0,1,2-3.8c.33-.15.12-.38.14-.61H681.6v-1.1h2.09l.08-.51c-1.8-.74-2.27-2.25-2.41-4h1.1c.11,1.16.33,2.27,1.52,2.88l.47-1.63a1.55,1.55,0,0,1-.67-1.28h1l.33.46c.26-.18.47-.34.7-.47a2.28,2.28,0,0,1,2.62.2c.46.34.5.34.75-.2h1.06a1.7,1.7,0,0,1-.74,1.35l.45,1.57c1.15-.63,1.36-1.73,1.49-2.88h1a4,4,0,0,1-2.29,4l0,.52ZM687,378.68c-.52,0-1,0-1.55,0-.26,0-.38.08-.42.33s-.15.66-.18,1a5.76,5.76,0,0,0,.68,3.68,1.53,1.53,0,0,0,2.81.14,1.35,1.35,0,0,0,.14-.22,6.24,6.24,0,0,0,.43-4.7c0-.18-.15-.23-.33-.23Zm1.44-1.12a1.5,1.5,0,0,0-2.89,0Z" transform="translate(-659.3 -359.8)"/><path class="cls-2" d="M687.52,379.94v3.51h-1.07v-3.51Z" transform="translate(-659.3 -359.8)"/></svg>