<svg id="Livello_1" data-name="Livello 1" xmlns="http://www.w3.org/2000/svg" viewBox="0 0 48.4 48.4"><defs><style>.cls-1{fill:transparent;}.cls-2{fill:#020102;}</style></defs><rect class="cls-1" width="48.4" height="48.4"/><path class="cls-2" d="M659.33,359.18v48.4h48.4v-48.4Zm5.21,5.21h38v38h-38Zm38.27-1H664.25L662,361.17h43Zm-39.26.7v38.57l-2.23,2.23v-43Zm.7,39.27h38.56L705,405.6H662Zm39.27-.7V364.1l2.23-2.23v43Z" transform="translate(-659.33 -359.18)"/><path class="cls-2" d="M677.89,369.61l.65-.94c.32-.46.62-.51,1.05-.16a4.77,4.77,0,0,1,1.42,1.67.39.39,0,0,0,.28.15c.18,0,.36,0,.54,0a.55.55,0,0,1,.68.56c.1,1.15.22,2.3.29,3.46a3.51,3.51,0,0,0,.53,1.74c1,1.63,2,3.29,2.95,4.92a1,1,0,0,0,.41.36,23.12,23.12,0,0,1,8.82,6.42l.2.24a.58.58,0,0,1-.09.72.56.56,0,0,1-.75-.05c-.24-.25-.45-.52-.69-.78a22,22,0,0,0-8.22-5.65.94.94,0,0,1-.44-.37c-1.22-2-2.45-4-3.61-6.08a3.42,3.42,0,0,1-.23-1.38c-.09-1-.16-2-.24-3a2,2,0,0,0-1.61,1.14,4.93,4.93,0,0,0-.53,2.75,7.83,7.83,0,0,0,1.17,3.78,7.25,7.25,0,0,1,.9,2.65c.28,1.47.5,3,.75,4.44a1.31,1.31,0,0,1,0,.28.56.56,0,0,1-.52.51.48.48,0,0,1-.55-.38,8.16,8.16,0,0,1-.15-1.09.39.39,0,0,0-.3-.38c-.6-.19-1.2-.39-1.79-.62a1.19,1.19,0,0,1-.52-.42c-.73-1-1.43-2.08-2.14-3.12-.34-.51-.33-.73.12-1.11a4.7,4.7,0,0,0,1.53-3.29,5,5,0,0,0-.06-2.22,3.48,3.48,0,0,0-.93-1.48,2.87,2.87,0,0,0-.18.34,24.94,24.94,0,0,1-3.93,6.33,1.35,1.35,0,0,0,0,1.65c.8,1.51,1.63,3,2.44,4.53l3.33,6.13a1.91,1.91,0,0,0,1.42,1c1.71.29,3.42.56,5.13.87a28.61,28.61,0,0,1,7.41,2.2c.89.43,1.73,1,2.58,1.46a.57.57,0,0,1,.24.85c-.18.27-.51.29-.88.08-.76-.45-1.5-.93-2.29-1.32a24.55,24.55,0,0,0-6.42-2c-2-.37-4-.67-6-1a2.92,2.92,0,0,1-2.16-1.58q-2.85-5.3-5.66-10.6a2.48,2.48,0,0,1-.24-2.27.9.9,0,0,0,0-.83,2.94,2.94,0,0,1,.32-3,33.23,33.23,0,0,0,3.55-6.49c.37-.87.68-1,1.45-.41C677.22,369,677.54,369.32,677.89,369.61Zm-.59,11c.65,1,1.29,1.91,1.94,2.86a.35.35,0,0,0,.11.1l1.34.46a14.38,14.38,0,0,0-2-5.85A5.49,5.49,0,0,1,677.3,380.59Zm-1-10.75-.16.33c-.36.79-.67,1.62-1.1,2.37-.78,1.37-1.61,2.71-2.45,4a1.86,1.86,0,0,0-.11,1.62,21.41,21.41,0,0,0,1.43-2c.76-1.39,1.44-2.83,2.15-4.25.28-.56.63-.64,1.11-.23l.44.37A2.54,2.54,0,0,0,676.33,369.84Zm2.95-.19-.65.9a.26.26,0,0,0,0,.17c.09.46.19.92.26,1.3l1.23-1.32Z" transform="translate(-659.33 -359.18)"/></svg>