<svg id="Livello_1" data-name="Livello 1" xmlns="http://www.w3.org/2000/svg" viewBox="0 0 48.4 48.4"><defs><style>.cls-1{fill:transparent;}.cls-2{fill:#020102;}.cls-3{fill:none;stroke:#1d1d1b;stroke-linecap:round;stroke-linejoin:round;stroke-width:0.98px;}</style></defs><rect class="cls-1" width="48.4" height="48.4"/><path class="cls-2" d="M677.71,359.18v48.4h48.41v-48.4Zm5.21,5.21h38v38h-38Zm38.28-1H682.63l-2.23-2.23h43Zm-39.27.7v38.57l-2.23,2.23v-43Zm.7,39.27H721.2l2.23,2.23h-43Zm39.27-.7V364.1l2.23-2.23v43Z" transform="translate(-677.71 -359.18)"/><polyline class="cls-3" points="43.72 27.59 40.99 27.59 40.99 37.93 34.86 37.93 34.86 27.53 27.87 27.53 27.87 37.88 21.41 37.88 21.41 27.53 15.08 27.53 15.08 37.88 8.95 37.88 8.95 27.53 4.69 27.53"/><path class="cls-3" d="M712.81,380.92l-5.23-9.86a.33.33,0,0,0-.58,0l-4.94,9.31a.33.33,0,0,1-.58,0l-4.93-9.31a.33.33,0,0,0-.58,0L691,380.37a.33.33,0,0,1-.58,0l-4.94-9.31a.33.33,0,0,0-.58,0l-2.35,4.42" transform="translate(-677.71 -359.18)"/><path class="cls-3" d="M721.19,375.9l-2.57-4.84a.33.33,0,0,0-.58,0l-5.23,9.86" transform="translate(-677.71 -359.18)"/></svg>